<svg width="16" height="17" viewBox="0 0 16 17" fill="none" xmlns="http://www.w3.org/2000/svg">
<g id="icons8-stop_pie_chart_report">
<path id="Shape" fill-rule="evenodd" clip-rule="evenodd" d="M0 0V16H6.76923V14.7692H1.23077V1.23077H7.38462V4.92308H11.0769V8.61539H12.3077V4.05288L8.25481 0H0ZM8.61539 2.10096L10.2067 3.69231H8.61539V2.10096ZM6.15385 9.23077V6.76923C4.78709 6.76923 3.69231 7.86401 3.69231 9.23077C3.69231 10.5975 4.78709 11.6923 6.15385 11.6923C7.52061 11.6923 8.61539 10.5975 8.61539 9.23077H6.15385Z" fill="#797979"/>
<path id="Path" fill-rule="evenodd" clip-rule="evenodd" d="M11.4615 10V12.4615H9V13.6923H11.4615V16.1538H12.6923V13.6923H15.1538V12.4615H12.6923V10H11.4615Z" fill="#2184DC"/>
</g>
</svg>
