<svg width="17" height="16" viewBox="0 0 17 16" fill="none" xmlns="http://www.w3.org/2000/svg">
<g id="icons8-find_user">
<path id="Shape" fill-rule="evenodd" clip-rule="evenodd" d="M5.90909 0C3.95632 0 2.36364 1.59268 2.36364 3.54545C2.36364 5.49822 3.95632 7.09091 5.90909 7.09091C2.64986 7.09091 0 9.74077 0 13H1.18182C1.18182 10.3917 3.30078 8.27273 5.90909 8.27273C6.99858 8.27273 7.98651 8.6559 8.78516 9.2745C8.97443 8.92365 9.19602 8.59588 9.47301 8.31889C8.48047 7.56179 7.25249 7.09091 5.90909 7.09091C7.86186 7.09091 9.45455 5.49822 9.45455 3.54545C9.45455 1.59268 7.86186 0 5.90909 0ZM8.27273 3.54545C8.27273 2.23438 7.22017 1.18182 5.90909 1.18182C4.59801 1.18182 3.54545 2.23438 3.54545 3.54545C3.54545 4.85653 4.59801 5.90909 5.90909 5.90909C7.22017 5.90909 8.27273 4.85653 8.27273 3.54545Z" fill="#797979"/>
<path id="Path" fill-rule="evenodd" clip-rule="evenodd" d="M12.4615 9V11.4615H10V12.6923H12.4615V15.1538H13.6923V12.6923H16.1538V11.4615H13.6923V9H12.4615Z" fill="#2184DC"/>
</g>
</svg>
