<svg width="9" height="17" viewBox="0 0 9 17" fill="none" xmlns="http://www.w3.org/2000/svg">
<path id="Shape" d="M4.25 17C1.90666 17 0 15.0933 0 12.75V3.1875C0 1.42959 1.42959 0 3.1875 0C4.94541 0 6.375 1.42959 6.375 3.1875V12.75C6.375 13.9219 5.42194 14.875 4.25 14.875C3.07806 14.875 2.125 13.9219 2.125 12.75V4.78125C2.125 4.488 2.363 4.25 2.65625 4.25C2.95003 4.25 3.1875 4.488 3.1875 4.78125V12.75C3.1875 13.3365 3.66403 13.8125 4.25 13.8125C4.8365 13.8125 5.3125 13.3365 5.3125 12.75V3.1875C5.3125 2.01556 4.35944 1.0625 3.1875 1.0625C2.01609 1.0625 1.0625 2.01556 1.0625 3.1875V12.75C1.0625 14.5079 2.49209 15.9375 4.25 15.9375C6.00791 15.9375 7.4375 14.5079 7.4375 12.75V4.78125C7.4375 4.488 7.6755 4.25 7.96875 4.25C8.262 4.25 8.5 4.488 8.5 4.78125V12.75C8.5 15.0933 6.59334 17 4.25 17Z" fill="#939393"/>
</svg>
