<svg width="17" height="13" viewBox="0 0 17 13" fill="none" xmlns="http://www.w3.org/2000/svg">
<path fill-rule="evenodd" clip-rule="evenodd" d="M10.0508 2C10.2842 0.862604 11.2963 0 12.5 0C13.875 0 15 1.12502 15 2.5V5H15.5C15.6804 4.99745 15.8481 5.09219 15.939 5.24794C16.0299 5.40369 16.0299 5.59631 15.939 5.75206C15.8481 5.90781 15.6804 6.00255 15.5 6H15V7.5C15 8.88857 14.1773 10.0836 13 10.6484V11C13 11.5575 13.4426 12 14 12V13C12.9015 13 12 12.0985 12 11V10.9492C11.9843 10.9515 11.9687 10.9538 11.953 10.9561C11.8039 10.9781 11.655 11 11.5 11H5.50004C5.34507 11 5.19616 10.9781 5.04712 10.9561C5.03143 10.9538 5.01574 10.9515 5.00004 10.9492V11C5.00004 12.0985 4.09857 13 3.00004 13V12C3.55751 12 4.00004 11.5575 4.00004 11V10.6484C2.82275 10.0836 2.00004 8.88857 2.00004 7.5V6H1.50004C1.31972 6.00255 1.152 5.90781 1.0611 5.75206C0.970194 5.59631 0.970194 5.40369 1.0611 5.24794C1.152 5.09219 1.31972 4.99745 1.50004 5H14V2.5C14 1.66498 13.3351 1 12.5 1C11.8418 1 11.2944 1.41605 11.0899 2H12V3H9.00004V2H10.0508ZM14 6H3.00004V7.5C3.00004 8.88683 4.11321 10 5.50004 10H11.5C12.8869 10 14 8.88683 14 7.5V6Z" fill="#1B1D1F"/>
</svg>
