<svg width="15" height="12" viewBox="0 0 15 12" fill="none" xmlns="http://www.w3.org/2000/svg">
<path fill-rule="evenodd" clip-rule="evenodd" d="M2.5 0C1.67747 0 1 0.677469 1 1.5V5.09375C0.420966 5.30223 0 5.85314 0 6.5V8V8.5V10V11.5V12H1V11.5V10H14V11.5V12H15V11.5V8.5V8V6.5C15 5.85314 14.579 5.30223 14 5.09375V1.5C14 0.677469 13.3225 0 12.5 0H2.5ZM2.5 1H12.5C12.7815 1 13 1.21853 13 1.5V5H12V4.5C12 3.67747 11.3225 3 10.5 3H8.5C8.11591 3 7.76662 3.15134 7.5 3.39258C7.23338 3.15134 6.88409 3 6.5 3H4.5C3.67747 3 3 3.67747 3 4.5V5H2V1.5C2 1.21853 2.21853 1 2.5 1ZM6.5 4H4.5C4.21853 4 4 4.21853 4 4.5V5H7V4.5C7 4.21853 6.78147 4 6.5 4ZM8.5 4H10.5C10.7815 4 11 4.21853 11 4.5V5H8V4.5C8 4.21853 8.21853 4 8.5 4ZM11.5 6H7.5H1.5C1.21853 6 1 6.21853 1 6.5V8V8.5V9H14V8.5V8V6.5C14 6.21853 13.7815 6 13.5 6H11.5Z" fill="#1B1D1F"/>
</svg>
