<svg width="15" height="15" viewBox="0 0 15 15" fill="none" xmlns="http://www.w3.org/2000/svg">
<g id="icons8-building">
<path id="Shape" fill-rule="evenodd" clip-rule="evenodd" d="M7.05 0.618799L7.2 0.581299L7.35 0.618799L13.95 2.4188L14.4 2.55005V15H7.8V12.6H6.6V15H0V2.55005L0.45 2.4188L7.05 0.618799ZM13.2 3.45005L7.2 1.8188L1.2 3.45005V13.8H5.4V11.4H9V13.8H13.2V3.45005ZM3 4.20005V5.40005H4.2V4.20005H3ZM5.4 5.40005V4.20005H6.6V5.40005H5.4ZM7.8 4.20005V5.40005H9V4.20005H7.8ZM10.2 5.40005V4.20005H11.4V5.40005H10.2ZM3 6.60005V7.80005H4.2V6.60005H3ZM5.4 7.80005V6.60005H6.6V7.80005H5.4ZM7.8 6.60005V7.80005H9V6.60005H7.8ZM10.2 7.80005V6.60005H11.4V7.80005H10.2ZM3 9.00005V10.2H4.2V9.00005H3ZM5.4 10.2V9.00005H6.6V10.2H5.4ZM7.8 9.00005V10.2H9V9.00005H7.8ZM10.2 10.2V9.00005H11.4V10.2H10.2ZM3 11.4V12.6H4.2V11.4H3ZM10.2 12.6V11.4H11.4V12.6H10.2Z" fill="#2184DC"/>
</g>
</svg>
