<svg width="14" height="15" viewBox="0 0 14 15" fill="none" xmlns="http://www.w3.org/2000/svg">
<path fill-rule="evenodd" clip-rule="evenodd" d="M0.974609 1.5C0.974609 0.677469 1.65208 0 2.47461 0H7.68164L10.9746 3.29297V5H9.97461V4H6.97461V1H2.47461C2.19314 1 1.97461 1.21853 1.97461 1.5V10.5C1.97461 10.7815 2.19314 11 2.47461 11H5V12H2.47461C1.65208 12 0.974609 11.3225 0.974609 10.5V1.5ZM9.26758 3L7.97461 1.70703V3H9.26758ZM12.1816 6.00391C11.8528 6.00601 11.5247 6.1339 11.2793 6.38477L6.65625 11.0879L5.95117 14.0508L8.91211 13.3457L9.01172 13.248L13.6172 8.72461C14.1211 8.23208 14.1251 7.40835 13.627 6.91016L13.0918 6.375C12.8425 6.12572 12.512 6.0018 12.1816 6.00391ZM12.3848 7.08203C12.328 7.02531 12.2572 6.99761 12.1875 6.99805C12.1178 6.99849 12.0494 7.02708 11.9941 7.08398L11.9922 7.08594L7.56445 11.5918L7.30078 12.7012L8.41211 12.4355L12.918 8.01172V8.00977C13.0321 7.8983 13.0317 7.72899 12.9199 7.61719L12.3848 7.08203Z" fill="#2184DC"/>
</svg>
