<svg width="20" height="20" viewBox="0 0 20 20" fill="none" xmlns="http://www.w3.org/2000/svg">
<g id="Group 15 Copy 7">
<mask id="mask0" mask-type="alpha" maskUnits="userSpaceOnUse" x="0" y="0" width="20" height="20">
<path id="Mask" fill-rule="evenodd" clip-rule="evenodd" d="M0 0H20V20H0V0Z" fill="white"/>
</mask>
<g mask="url(#mask0)">
<g id="Group 39">
<path id="Rectangle 12 Copy 3" fill-rule="evenodd" clip-rule="evenodd" d="M0 2H17C18.6569 2 20 3.34315 20 5V15C20 16.6569 18.6569 18 17 18H3C1.34315 18 0 16.6569 0 15V2Z" fill="#B2CCFF"/>
<path id="Rectangle 12 Copy 7" fill-rule="evenodd" clip-rule="evenodd" d="M0 2C0 0.895431 0.895431 0 2 0L7.00485 0L10.015 3.01275L0 7.64467L0 2Z" fill="#B2CCFF"/>
<path id="Rectangle 12" fill-rule="evenodd" clip-rule="evenodd" d="M0 7C0 5.34315 1.34315 4 3 4H17C18.6569 4 20 5.34315 20 7V17C20 18.6569 18.6569 20 17 20H3C1.34315 20 0 18.6569 0 17V7Z" fill="#5B91FB"/>
</g>
</g>
</g>
</svg>
