<svg width="20" height="20" viewBox="0 0 20 20" fill="none" xmlns="http://www.w3.org/2000/svg">
<g id="Group 15 Copy 6">
<mask id="mask0" mask-type="alpha" maskUnits="userSpaceOnUse" x="0" y="0" width="20" height="20">
<path id="Mask" fill-rule="evenodd" clip-rule="evenodd" d="M0 0H20V20H0V0Z" fill="white"/>
</mask>
<g mask="url(#mask0)">
<g id="Group 34">
<path id="Rectangle 2" fill-rule="evenodd" clip-rule="evenodd" d="M0 3C0 1.34315 1.34315 0 3 0H17C18.6569 0 20 1.34315 20 3V17C20 18.6569 18.6569 20 17 20H3C1.34315 20 0 18.6569 0 17V3Z" fill="#5B91FB"/>
<path id="Rectangle-path" d="M4.67697 9.71875L6.09137 8.30475L10.3334 12.5479L8.91897 13.9619L4.67697 9.71875Z" fill="white"/>
<path id="Rectangle-path_2" d="M7.46582 12.5068L13.8297 6.14294L15.3224 7.63562L8.95851 13.9995L7.46582 12.5068Z" fill="#B2CCFF"/>
</g>
</g>
</g>
</svg>
