<svg width="20" height="20" viewBox="0 0 20 20" fill="none" xmlns="http://www.w3.org/2000/svg">
<g id="Group 15">
<mask id="mask0" mask-type="alpha" maskUnits="userSpaceOnUse" x="0" y="0" width="20" height="20">
<path id="Mask" fill-rule="evenodd" clip-rule="evenodd" d="M0 0H20V20H0V0Z" fill="white"/>
</mask>
<g mask="url(#mask0)">
<g id="Group 15_2">
<path id="Path 7" fill-rule="evenodd" clip-rule="evenodd" d="M0.514152 6.12605C0.514152 6.12605 18.2648 0.0362841 18.3782 0.0499925C18.3782 0.0499925 18.5968 -0.0147037 18.7809 -0.0427917C18.9855 -0.0740019 19.0608 -0.0393591 19.148 0.042081C19.1883 0.0796531 19.3126 0.190298 19.3126 0.190298C19.3126 0.190298 19.264 0.245532 19.2562 0.252996C19.2318 0.276309 19.2285 0.284026 19.2074 0.307201C19.133 0.388739 19.0572 0.47404 19.0076 0.529035C18.4989 1.09407 13.2796 6.89072 13.2796 6.89072C13.2796 6.89072 12.7987 7.42002 12.5922 7.65407C8.07209 12.7792 4.4008 13.8751 1.4521 11.0142C1.4521 11.0142 -0.184842 9.54028 0.277376 6.94828L0.476209 6.22358L0.514152 6.12605Z" fill="#5B91FB"/>
<path id="Path 7_2" fill-rule="evenodd" clip-rule="evenodd" d="M15.377 19.5087C15.377 19.5087 19.5779 1.21869 19.5524 1.10732C19.5524 1.10732 19.5939 0.883224 19.6026 0.697142C19.6123 0.490376 19.57 0.41918 19.4798 0.340912C19.4383 0.304804 19.3152 0.192695 19.3152 0.192695C19.3152 0.192695 19.2654 0.246851 19.2588 0.255393C19.2381 0.282074 19.2308 0.286158 19.21 0.309599C19.1367 0.392073 19.0597 0.476438 19.0102 0.531433C18.5015 1.09647 13.2821 6.89312 13.2821 6.89312C13.2821 6.89312 12.806 7.42671 12.5948 7.65647C7.97028 12.6876 7.26414 16.4533 10.4176 19.0868C10.4176 19.0868 12.0545 20.5607 14.584 19.8301L15.2839 19.5566L15.377 19.5087Z" fill="#B2CCFF"/>
</g>
</g>
</g>
</svg>
