<svg viewBox="0 0 20 14" xmlns="http://www.w3.org/2000/svg">
	<path fill-rule="evenodd" clip-rule="evenodd" d="M17 3C17 4.65685 15.6569 6 14 6C12.3431 6 11 4.65685 11 3C11 1.34315 12.3431 0 14 0C15.6569 0 17 1.34315 17 3ZM14 7C10.6863 7 8 9.68629 8 13V14H20V13C20 9.68629 17.3137 7 14 7Z" fill="hsl(220, 100%, 85%)" />
	<path fill-rule="evenodd" clip-rule="evenodd" d="M9 3C9 4.65685 7.65685 6 6 6C4.34315 6 3 4.65685 3 3C3 1.34315 4.34315 0 6 0C7.65685 0 9 1.34315 9 3ZM6 7C2.68629 7 0 9.68629 0 13V14H12V13C12 9.68629 9.31371 7 6 7Z" fill="hsl(219, 95%, 67%)" />
</svg>
