<svg width="16" height="16" viewBox="0 0 16 16" fill="none" xmlns="http://www.w3.org/2000/svg">
<path fill-rule="evenodd" clip-rule="evenodd" d="M0 8C0 3.58854 3.58854 0 8 0C12.4115 0 16 3.58854 16 8C16 12.4115 12.4115 16 8 16C3.58854 16 0 12.4115 0 8ZM11.5625 2.375C10.5312 1.72396 9.3125 1.33333 8 1.33333C7.8806 1.33333 7.7612 1.34562 7.64327 1.35776L7.64326 1.35776L7.64326 1.35776C7.58114 1.36416 7.51943 1.37051 7.45833 1.375L8.9375 1.47917L9.29167 3.02083L7.29167 3.39583L6.75 2.64583L5.60417 2.89583L6 4.66667L3.33333 5.9375L1.54167 7.35417L2.1875 8.66667H4.66667L7.35417 10.6875L6.64583 13.3542L7.375 14.625L7.48223 14.6348C7.65304 14.6507 7.82563 14.6667 8 14.6667C9.02865 14.6667 10.0078 14.4349 10.875 14.0208L11.9375 10.6875C11.9375 10.6875 11.4453 9.47917 11.375 9.47917C11.3047 9.47917 9.97917 9.70833 9.97917 9.70833L8.6875 8.64583L9.33333 6.64583L10.4792 5.79167L11.6458 5.625L12.7292 6.29167L13.1875 5.45833L11.3958 4.875L9.95833 5.33333L9.85417 3.95833L10.4375 3.45833L11.1458 3.77083L11.0208 2.4375L11.5625 2.375ZM7.25 1.375L6.20833 1.8125L5.70833 1.72917C6.20052 1.54948 6.71094 1.4349 7.25 1.375ZM2.02083 9.27083L1.375 8.52083C1.58594 11.2604 3.42188 13.5391 5.9375 14.3542L4.04167 12.0208H3.27083L2.02083 10.6458V9.27083Z" fill="#A1A1A1"/>
</svg>
