<svg width="25" height="23" viewBox="0 0 25 23" fill="none" xmlns="http://www.w3.org/2000/svg">
<path fill-rule="evenodd" clip-rule="evenodd" d="M7.10938 1.26416C9.15039 1.26416 10.9253 2.30863 11.9727 3.89137L12.5 4.68151L13.0273 3.89137C14.0747 2.30863 15.8496 1.26416 17.8906 1.26416C21.1304 1.26416 23.75 3.88397 23.75 7.13094C23.75 14.02 16.0864 17.8818 12.5 20.7213C8.91357 17.8818 1.25 14.02 1.25 7.13094C1.25 3.88397 3.86719 1.26416 7.10938 1.26416Z" fill="#2184DC"/>
<path fill-rule="evenodd" clip-rule="evenodd" d="M0 7.13101C0 3.19513 3.19824 0 7.10938 0C9.28223 0 11.1963 1.01977 12.5 2.56795C13.8037 1.01977 15.7178 0 17.8906 0C21.8018 0 25 3.19513 25 7.13101C25 13.6314 19.1273 17.6384 15.2456 20.287C14.3072 20.9272 13.4852 21.4881 12.8906 21.9856L12.5 22.3214L12.1094 21.9856C11.5148 21.4881 10.6928 20.9272 9.75444 20.287C5.87271 17.6384 0 13.6314 0 7.13101ZM11.9727 3.89143C10.9253 2.30869 9.15039 1.26422 7.10938 1.26422C3.86719 1.26422 1.25 3.88403 1.25 7.13101C1.25 12.7855 6.41295 16.4005 10.2466 19.0848C11.0836 19.6708 11.8573 20.2125 12.5 20.7214C13.1427 20.2125 13.9164 19.6708 14.7534 19.0848C18.5871 16.4005 23.75 12.7855 23.75 7.13101C23.75 3.88403 21.1304 1.26422 17.8906 1.26422C15.8496 1.26422 14.0747 2.30869 13.0273 3.89143L12.5 4.68157L11.9727 3.89143Z" fill="white"/>
</svg>
