<svg width="11" height="15" viewBox="0 0 11 15" fill="none" xmlns="http://www.w3.org/2000/svg">
<path fill-rule="evenodd" clip-rule="evenodd" d="M9.42857 0H1.57143C0.705916 0 0 0.673828 0 1.5V13.5C0 14.3262 0.705916 15 1.57143 15H9.42857C10.2941 15 11 14.3262 11 13.5V1.5C11 0.673828 10.2941 0 9.42857 0ZM5.5 14.25C5.06724 14.25 4.71429 13.9131 4.71429 13.5C4.71429 13.0869 5.06724 12.75 5.5 12.75C5.93276 12.75 6.28571 13.0869 6.28571 13.5C6.28571 13.9131 5.93276 14.25 5.5 14.25ZM1.57143 12H9.42857V2.25H1.57143V12Z" fill="#A1A1A1"/>
</svg>
