<svg width="15" height="15" viewBox="0 0 15 15" fill="none" xmlns="http://www.w3.org/2000/svg">
<path id="Shape" fill-rule="evenodd" clip-rule="evenodd" d="M13.2188 6.61491C13.2188 8.10559 12.75 9.40994 11.9062 10.528L14.7188 13.4161C15.0938 13.7888 15.0938 14.3478 14.7188 14.7205C14.5312 14.9068 14.25 15 14.0625 15C13.875 15 13.5938 14.9068 13.4062 14.7205L10.5938 11.9255C9.5625 12.764 8.15625 13.2298 6.65625 13.2298C3 13.2298 0 10.2484 0 6.61491C0 2.98137 3 0 6.65625 0C10.3125 0 13.2188 2.98137 13.2188 6.61491ZM1.875 6.61491C1.875 9.2236 4.03125 11.2733 6.65625 11.2733C9.28125 11.2733 11.4375 9.2236 11.4375 6.61491C11.4375 4.00621 9.28125 1.86335 6.65625 1.86335C4.03125 1.86335 1.875 4.00621 1.875 6.61491Z" fill="white"/>
</svg>
