<svg width="14" height="13" viewBox="0 0 14 13" fill="none" xmlns="http://www.w3.org/2000/svg">
<path id="Path" fill-rule="evenodd" clip-rule="evenodd" d="M8.1932 1.00759C8.11305 0.990166 8.02244 1.00411 7.94228 1.03547C7.78545 1.10169 7.69135 1.25503 7.69135 1.4258V3.57261C4.81268 3.57261 1 4.9771 1 12.1041C2.25811 7.55606 3.95535 7.19709 7.69135 7.19709V9.42754C7.69135 9.59831 7.78545 9.75166 7.94228 9.81787C7.99455 9.83878 8.0538 9.84575 8.10956 9.84575C8.2176 9.84575 8.33609 9.78651 8.41625 9.70635L12.8772 5.69154C13.0409 5.52774 13.0409 5.26984 12.8772 5.10604L8.41625 1.11911C8.357 1.05987 8.27336 1.02502 8.1932 1.00759Z" fill="white" stroke="#939393" stroke-linecap="round" stroke-linejoin="round"/>
</svg>
