<svg width="20" height="20" viewBox="0 0 20 20" fill="none" xmlns="http://www.w3.org/2000/svg">
<path d="M9.42383 0C9.17983 0 8.96969 0.176969 8.92969 0.417969L8.64648 2.12305C8.15974 2.20672 7.68918 2.33608 7.23633 2.50391L6.13477 1.16797C5.97977 0.978969 5.71005 0.929734 5.49805 1.05273L4.50195 1.62891C4.28995 1.75091 4.1972 2.00833 4.2832 2.23633L4.88867 3.85352C4.51324 4.1664 4.1664 4.51324 3.85352 4.88867L2.23633 4.2832C2.00833 4.1972 1.75091 4.28995 1.62891 4.50195L1.05273 5.49805C0.929734 5.71005 0.978969 5.97977 1.16797 6.13477L2.50391 7.23633C2.33608 7.68918 2.20672 8.15974 2.12305 8.64648L0.417969 8.92969C0.176969 8.97069 0 9.17883 0 9.42383V10.5762C0 10.8202 0.176969 11.0303 0.417969 11.0703L2.12305 11.3535C2.20672 11.8403 2.33608 12.3108 2.50391 12.7637L1.16797 13.8652C0.978969 14.0202 0.930734 14.29 1.05273 14.502L1.62891 15.498C1.75091 15.71 2.00833 15.8028 2.23633 15.7168L3.85352 15.1113C4.1664 15.4868 4.51324 15.8336 4.88867 16.1465L4.2832 17.7637C4.1972 17.9927 4.29095 18.2491 4.50195 18.3711L5.49805 18.9473C5.71005 19.0693 5.97977 19.02 6.13477 18.832L7.23438 17.4961C7.68775 17.6642 8.15912 17.7932 8.64648 17.877L8.92969 19.582C8.97069 19.823 9.17883 20 9.42383 20H10.5762C10.8202 20 11.0303 19.823 11.0703 19.582L11.3535 17.877C11.8403 17.7933 12.3108 17.6639 12.7637 17.4961L13.8652 18.832C14.0202 19.021 14.29 19.0693 14.502 18.9473L15.498 18.3711C15.71 18.2491 15.8028 17.9917 15.7168 17.7637L15.1113 16.1465C15.4868 15.8336 15.8336 15.4868 16.1465 15.1113L17.7637 15.7168C17.9927 15.8028 18.2491 15.709 18.3711 15.498L18.9473 14.502C19.0693 14.29 19.02 14.0202 18.832 13.8652L17.4961 12.7656C17.6642 12.3123 17.7932 11.8409 17.877 11.3535L19.582 11.0703C19.823 11.0293 20 10.8212 20 10.5762V9.42383C20 9.17983 19.823 8.96969 19.582 8.92969L17.877 8.64648C17.7933 8.15974 17.6639 7.68918 17.4961 7.23633L18.832 6.13477C19.021 5.97977 19.0693 5.71005 18.9473 5.49805L18.3711 4.50195C18.2491 4.28995 17.9917 4.1972 17.7637 4.2832L16.1465 4.88867C15.8336 4.51324 15.4868 4.1664 15.1113 3.85352L15.7168 2.23633C15.8028 2.00733 15.709 1.75091 15.498 1.62891L14.502 1.05273C14.29 0.930734 14.0202 0.979969 13.8652 1.16797L12.7656 2.50391C12.3123 2.33576 11.8409 2.20682 11.3535 2.12305L11.0703 0.417969C11.0293 0.176969 10.8212 0 10.5762 0H9.42383ZM9 4.08984V7.17383C8.41546 7.38049 7.90931 7.76319 7.55116 8.26928C7.19301 8.77538 7.00047 9.38 7 10C7.00005 10.1841 7.01705 10.3678 7.05078 10.5488L4.37891 12.0898C4.13823 11.4388 4 10.737 4 10C4 7.01614 6.15536 4.5638 9 4.08984ZM11 4.08984C13.8446 4.5638 16 7.01614 16 10C16 10.7379 15.8604 11.4401 15.6191 12.0918L12.9473 10.5469C12.9815 10.3666 12.9992 10.1835 13 10C12.9991 9.38033 12.8064 8.77614 12.4483 8.27044C12.0902 7.76474 11.5842 7.38234 11 7.17578V4.08984ZM11.9473 12.2773L14.6289 13.8262C13.5304 15.156 11.8686 16 10 16C8.13138 16 6.46961 15.156 5.37109 13.8262L8.05078 12.2793C8.5939 12.7441 9.28515 12.9997 10 13C10.7144 12.9987 11.4049 12.7424 11.9473 12.2773Z" fill="#5B91FB"/>
</svg>
