<svg width="72" height="69" viewBox="0 0 72 69" fill="none" xmlns="http://www.w3.org/2000/svg">
<g id="Group 25">
<g id="Path 3">
<path id="Mask" fill-rule="evenodd" clip-rule="evenodd" d="M44.4474 10.5538C41.8717 5.90705 36.0168 4.22816 31.3701 6.80388C26.7234 9.37959 25.0445 15.2345 27.6202 19.8812L48.7952 58.0819C51.3709 62.7286 57.2258 64.4075 61.8725 61.8318C66.5193 59.2561 68.1981 53.4011 65.6224 48.7544L44.4474 10.5538Z" fill="#B2CCFF"/>
<mask id="mask0" mask-type="alpha" maskUnits="userSpaceOnUse" x="22" y="2" width="49" height="65">
<path id="Mask_2" fill-rule="evenodd" clip-rule="evenodd" d="M44.4474 10.5538C41.8717 5.90705 36.0168 4.22816 31.3701 6.80388C26.7234 9.37959 25.0445 15.2345 27.6202 19.8812L48.7952 58.0819C51.3709 62.7286 57.2258 64.4075 61.8725 61.8318C66.5193 59.2561 68.1981 53.4011 65.6224 48.7544L44.4474 10.5538Z" fill="white"/>
</mask>
<g mask="url(#mask0)">
<path id="Path 3_2" fill-rule="evenodd" clip-rule="evenodd" d="M37.7629 41.6826L44.7968 17.5152L40.2512 1.68677L28.5928 6.84638L24.457 25.5778L36.2476 43.1316L37.7629 41.6826Z" fill="#3C6BC9"/>
</g>
</g>
<path id="Rectangle 7" fill-rule="evenodd" clip-rule="evenodd" d="M27.535 10.5538C30.1107 5.90705 35.9656 4.22816 40.6123 6.80388C45.259 9.37959 46.9379 15.2345 44.3622 19.8812L23.1872 58.0819C20.6115 62.7286 14.7566 64.4075 10.1099 61.8318C5.46317 59.2561 3.7843 53.4011 6.36001 48.7544L27.535 10.5538Z" fill="white"/>
</g>
</svg>
